<?xml version="1.0" standalone="no"?>
<!DOCTYPE svg PUBLIC "-//W3C//DTD SVG 20010904//EN"
 "http://www.w3.org/TR/2001/REC-SVG-20010904/DTD/svg10.dtd">
<svg version="1.0" xmlns="http://www.w3.org/2000/svg"
 width="720.000000pt" height="720.000000pt" viewBox="0 0 720.000000 720.000000"
 preserveAspectRatio="xMidYMid meet">

<g transform="translate(0.000000,720.000000) scale(0.100000,-0.100000)"
fill="#000000" stroke="none">
<path d="M1 5523 c1 -923 6 -1637 10 -1588 20 222 68 472 135 693 65 216 110
332 209 540 35 72 61 132 59 132 -8 0 -146 -292 -179 -378 -16 -39 -30 -70
-32 -68 -19 18 270 608 310 633 7 4 5 -4 -4 -17 -29 -46 -91 -160 -86 -160 3
0 28 42 57 93 56 97 153 246 203 310 16 21 27 40 25 43 -3 2 -42 -51 -88 -118
-89 -131 -118 -168 -81 -103 34 58 149 223 163 231 7 4 21 9 33 10 11 2 83 27
160 57 77 30 141 53 143 52 2 -2 -4 -40 -12 -86 -41 -227 -46 -499 -12 -656
l16 -73 -61 -137 c-163 -367 -250 -687 -315 -1150 l-17 -123 -46 -26 c-167
-97 -310 -241 -407 -411 l-41 -73 -25 38 c-14 20 -44 70 -67 110 -23 39 -44
72 -46 72 -3 0 -5 -758 -5 -1685 l0 -1685 1678 1 c987 1 1640 6 1587 11 -49 4
-130 14 -180 22 -83 12 -87 14 -50 20 274 46 391 76 555 141 108 43 109 43
288 26 273 -27 637 22 1007 134 240 73 623 239 848 368 77 45 112 46 67 3 -13
-11 -19 -15 -15 -7 5 9 3 12 -6 9 -8 -3 -14 -10 -14 -16 0 -6 -7 -17 -15 -24
-12 -11 -12 -11 -1 5 7 9 9 17 3 17 -12 0 -34 -25 -27 -32 3 -3 -2 -11 -12
-19 -14 -12 -15 -12 -9 0 6 9 4 12 -5 9 -8 -3 -14 -10 -14 -15 0 -6 -4 -15 -9
-20 -5 -5 -6 -2 -1 6 5 9 3 12 -6 9 -8 -3 -13 -10 -12 -16 2 -6 -23 -29 -55
-50 -70 -47 -82 -54 -82 -49 0 3 29 24 65 47 36 24 63 45 61 48 -3 3 -20 -6
-38 -20 -49 -37 -277 -172 -368 -218 -415 -209 -869 -341 -1305 -379 -49 -4
665 -9 1588 -10 l1677 -1 -2 1682 c-1 926 -3 1667 -5 1648 -43 -503 -164 -937
-382 -1363 -100 -195 -259 -447 -354 -560 -22 -26 -38 -49 -35 -52 3 -3 33 33
68 80 35 47 65 85 67 85 7 0 -7 -20 -68 -100 -50 -66 -106 -127 -85 -92 11 18
1 16 -134 -37 l-125 -49 -7 101 c-12 173 -80 398 -187 622 l-38 80 78 156
c219 440 327 792 368 1199 l9 95 -41 54 c-215 280 -473 495 -800 666 l-117 62
-4 164 c-5 189 -23 326 -71 524 -55 229 -158 503 -260 692 -25 46 -45 87 -45
92 0 5 138 104 306 220 l307 211 100 -56 c413 -230 771 -588 1016 -1016 98
-170 219 -446 227 -518 3 -19 7 -154 9 -300 l5 -266 -54 -79 c-110 -161 -228
-279 -357 -356 -65 -39 -164 -79 -194 -79 -8 0 -15 -4 -15 -9 0 -14 95 16 170
54 135 68 283 205 389 361 30 43 58 83 62 88 10 11 90 -148 146 -294 25 -63
47 -117 49 -119 2 -2 4 809 4 1803 l0 1806 -1667 -2 c-918 -1 -1648 -3 -1623
-5 85 -6 335 -44 450 -69 842 -181 1603 -669 2125 -1365 47 -63 91 -114 97
-114 6 0 13 -6 16 -14 3 -9 0 -11 -9 -6 -8 5 -11 4 -6 -1 5 -5 14 -9 20 -9 5
0 12 -6 15 -14 3 -9 0 -11 -8 -6 -9 5 -11 4 -6 -4 4 -6 11 -9 16 -6 15 9 186
-282 286 -490 52 -106 70 -158 38 -105 -10 17 -13 19 -9 5 27 -78 38 -106 41
-102 3 2 0 17 -6 32 -6 15 -9 30 -7 32 3 2 21 -44 42 -102 21 -58 36 -108 33
-110 -2 -3 -14 27 -27 66 -12 39 -24 69 -26 67 -2 -2 11 -53 30 -113 32 -102
34 -111 18 -122 -9 -7 -22 -13 -29 -13 -6 0 -30 48 -54 108 -60 152 -179 382
-269 520 -241 367 -585 690 -940 880 -50 27 -89 51 -86 53 8 9 -128 183 -213
271 -99 103 -210 193 -331 268 -92 57 -345 185 -431 218 -215 83 -628 133
-841 103 -115 -17 -262 -54 -373 -96 l-93 -35 -57 20 c-149 51 -250 65 -466
65 -225 0 -308 -11 -505 -66 -146 -41 -261 -87 -428 -170 -76 -38 -143 -67
-148 -64 -5 4 -17 1 -26 -5 -16 -9 -15 -10 5 -5 35 10 26 -3 -20 -26 -24 -12
-75 -44 -115 -70 -43 -30 -70 -43 -69 -34 1 9 8 21 16 28 10 10 11 9 5 -2 -5
-9 -3 -12 6 -9 8 3 14 10 14 16 0 13 39 43 52 41 20 -3 34 2 28 11 -4 6 -3 10
2 9 19 -3 34 2 28 10 -3 5 0 13 6 17 8 5 9 3 4 -6 -5 -8 -3 -11 6 -8 8 3 14
10 14 17 0 17 45 40 64 33 9 -3 12 -1 7 6 -3 6 3 16 15 22 17 9 20 9 14 0 -5
-8 -3 -11 6 -8 8 3 13 11 11 17 -1 7 2 10 7 6 6 -3 59 19 119 49 403 202 861
335 1287 375 52 4 -623 9 -1583 10 l-1672 1 1 -1677z m3107 1660 c-10 -2 -26
-2 -35 0 -10 3 -2 5 17 5 19 0 27 -2 18 -5z m1025 0 c-7 -2 -21 -2 -30 0 -10
3 -4 5 12 5 17 0 24 -2 18 -5z m-1118 -14 c-51 -10 -92 -10 -50 1 17 4 44 8
60 8 25 0 24 -2 -10 -9z m1220 1 c42 -11 1 -11 -50 -1 -34 7 -35 9 -10 9 17 0
44 -4 60 -8z m-1312 -17 c-7 -2 -19 -2 -25 0 -7 3 -2 5 12 5 14 0 19 -2 13 -5z
m1380 0 c-7 -2 -19 -2 -25 0 -7 3 -2 5 12 5 14 0 19 -2 13 -5z m-1430 -10 c-7
-2 -19 -2 -25 0 -7 3 -2 5 12 5 14 0 19 -2 13 -5z m1480 0 c-7 -2 -19 -2 -25
0 -7 3 -2 5 12 5 14 0 19 -2 13 -5z m-1608 -29 c-49 -13 -94 -22 -100 -20 -12
3 143 44 170 44 11 0 -20 -11 -70 -24z m1685 16 c20 -6 21 -8 5 -8 -11 0 -31
4 -45 8 -20 6 -21 8 -5 8 11 0 31 -4 45 -8z m120 -30 c99 -27 292 -91 288 -95
-2 -2 -66 16 -143 40 -77 24 -162 51 -190 58 -27 8 -45 15 -40 16 6 1 44 -8
85 -19z m-1935 -20 c-11 -5 -27 -9 -35 -9 -9 0 -8 4 5 9 11 5 27 9 35 9 9 0 8
-4 -5 -9z m-149 -46 c-55 -18 -101 -32 -103 -30 -5 5 167 64 187 64 8 0 -30
-15 -84 -34z m-126 -43 c-8 -5 -26 -11 -40 -15 -21 -5 -20 -3 5 9 32 15 60 20
35 6z m811 -20 c53 -12 126 -30 162 -41 l65 -20 76 -306 c42 -169 81 -315 86
-324 8 -15 0 -22 -53 -44 -141 -61 -344 -191 -532 -340 -129 -103 -399 -368
-528 -519 -57 -67 -106 -116 -113 -113 -7 3 -88 10 -181 17 -388 27 -704 -26
-998 -165 l-94 -44 -10 48 c-38 178 -38 394 0 634 l22 138 98 152 c53 83 143
213 199 288 90 121 112 144 191 200 134 95 249 163 404 238 236 115 451 184
669 215 143 20 409 13 537 -14z m1759 7 c10 -6 7 -7 -10 -2 -14 3 -32 11 -40
16 -10 6 -7 7 10 2 14 -3 32 -11 40 -16z m-2650 -18 c-8 -5 -19 -10 -25 -10
-5 0 -3 5 5 10 8 5 20 10 25 10 6 0 3 -5 -5 -10z m2700 0 c8 -5 11 -10 5 -10
-5 0 -17 5 -25 10 -8 5 -10 10 -5 10 6 0 17 -5 25 -10z m-2760 -25 c-14 -8
-29 -14 -35 -14 -5 0 1 6 15 14 14 8 30 14 35 14 6 0 -1 -6 -15 -14z m2820 0
c14 -8 21 -14 15 -14 -5 0 -21 6 -35 14 -14 8 -20 14 -15 14 6 0 21 -6 35 -14z
m110 -50 c36 -19 61 -34 55 -34 -5 0 -39 15 -75 34 -36 19 -60 34 -55 34 6 0
39 -15 75 -34z m-3060 -10 c-36 -19 -69 -34 -75 -34 -5 0 19 15 55 34 36 19
70 34 75 34 6 0 -19 -15 -55 -34z m-110 -50 c0 -2 -22 -16 -50 -30 -27 -14
-50 -23 -50 -20 0 2 21 16 48 29 53 28 52 28 52 21z m3400 -60 c0 -3 -27 8
-60 25 -33 17 -60 33 -60 35 0 3 27 -8 60 -25 33 -17 60 -33 60 -35z m133 -79
l22 -18 -25 14 c-14 8 -46 27 -72 42 -27 15 -48 30 -48 33 0 6 96 -49 123 -71z
m140 -89 c48 -33 90 -64 93 -69 6 -10 -183 117 -201 135 -17 17 14 -2 108 -66z
m-4114 -63 c-15 -18 -26 -18 -26 0 0 8 6 12 15 8 11 -4 13 -1 7 8 -5 9 -4 11
4 6 9 -6 9 -11 0 -22z m4346 -110 c146 -116 354 -318 495 -479 67 -77 224
-285 218 -290 -2 -2 -36 40 -75 93 -160 219 -433 503 -638 666 -94 74 -153
125 -115 100 8 -6 60 -46 115 -90z m-2016 -200 c167 -28 369 -79 495 -125 160
-58 516 -246 654 -344 29 -21 134 -231 205 -410 125 -316 188 -622 191 -914 1
-131 -1 -145 -18 -155 -69 -41 -364 -253 -476 -343 -219 -175 -610 -574 -610
-623 0 -11 74 -329 165 -707 l165 -686 -56 -75 c-311 -412 -697 -762 -1000
-904 l-87 -40 -96 6 c-501 36 -887 168 -1297 442 -53 35 -101 64 -108 64 -29
0 -160 277 -226 480 -81 246 -121 458 -142 753 l-11 168 24 17 c31 22 1041
981 1053 1000 5 8 4 36 -2 66 -27 133 -314 1333 -322 1348 -7 12 6 34 57 95
334 394 690 692 1028 860 l130 64 70 -6 c39 -4 135 -18 214 -31z m-3683 -1490
c-14 -38 -25 -64 -25 -58 -1 15 40 136 45 131 2 -2 -7 -35 -20 -73z m6902 -84
c0 -8 -6 1 -13 20 -7 19 -13 42 -13 50 0 8 6 -1 13 -20 7 -19 13 -42 13 -50z
m-6944 -54 c-3 -15 -8 -25 -11 -23 -2 3 -1 17 3 31 3 15 8 25 11 23 2 -3 1
-17 -3 -31z m-43 -162 c-16 -65 -30 -113 -30 -105 -1 20 50 233 55 228 2 -2
-9 -57 -25 -123z m-34 -156 c-3 -7 -5 -2 -5 12 0 14 2 19 5 13 2 -7 2 -19 0
-25z m-13 -77 c-4 -28 -9 -50 -11 -47 -3 3 -2 28 2 56 4 28 9 49 12 47 2 -3 1
-28 -3 -56z m-17 -113 c-3 -7 -5 -2 -5 12 0 14 2 19 5 13 2 -7 2 -19 0 -25z
m694 -525 c158 -193 434 -435 735 -645 l140 -97 11 -183 c25 -385 110 -737
249 -1027 30 -63 68 -137 85 -164 30 -48 30 -50 12 -68 -147 -141 -472 -429
-485 -429 -52 0 -235 83 -435 196 l-134 76 -97 122 c-112 139 -236 320 -312
454 -29 50 -54 92 -57 92 -5 0 57 -114 86 -160 9 -13 11 -21 4 -17 -23 15
-230 403 -220 414 3 2 30 -48 60 -111 31 -64 58 -116 62 -116 3 0 -12 35 -34
78 -54 108 -134 293 -171 398 -45 126 -110 346 -104 355 2 4 13 97 24 206 18
172 24 204 47 248 89 169 246 335 403 428 25 15 50 27 56 27 6 0 40 -35 75
-77z m6476 -490 c-3 -10 -5 -2 -5 17 0 19 2 27 5 18 2 -10 2 -26 0 -35z m-10
-60 c-3 -10 -5 -4 -5 12 0 17 2 24 5 18 2 -7 2 -21 0 -30z m-10 -60 c-3 -10
-5 -4 -5 12 0 17 2 24 5 18 2 -7 2 -21 0 -30z m-10 -55 c-3 -7 -5 -2 -5 12 0
14 2 19 5 13 2 -7 2 -19 0 -25z m-17 -83 c-6 -31 -14 -55 -16 -52 -2 2 1 29 7
61 7 31 14 54 16 52 3 -2 -1 -30 -7 -61z m-30 -125 c-7 -28 -14 -49 -16 -47
-3 2 1 27 8 55 6 29 13 50 16 47 2 -2 -1 -27 -8 -55z m-7006 -20 c4 -24 3 -28
-2 -15 -14 31 -24 83 -13 65 5 -8 11 -31 15 -50z m25 -85 c0 -5 -4 -3 -9 5 -5
8 -9 22 -9 30 0 16 17 -16 18 -35z m6955 11 c-3 -15 -8 -25 -11 -23 -2 3 -1
17 3 31 3 15 8 25 11 23 2 -3 1 -17 -3 -31z m-6888 -233 c-5 -5 -66 177 -65
192 0 6 16 -35 35 -89 18 -55 32 -101 30 -103z m6849 107 c-9 -28 -19 -50 -21
-48 -2 2 4 27 13 56 9 28 19 50 21 47 2 -2 -4 -27 -13 -55z m-6797 -225 c23
-54 40 -101 38 -102 -4 -4 -68 144 -81 187 -15 49 3 13 43 -85z m6743 78 c-12
-20 -14 -14 -5 12 4 9 9 14 11 11 3 -2 0 -13 -6 -23z m-51 -129 c-45 -106
-128 -274 -134 -274 -3 0 26 64 63 143 37 78 76 163 86 190 10 26 20 45 22 43
3 -2 -14 -48 -37 -102z m-992 -251 c116 -251 182 -486 182 -651 0 -57 -15 -85
-173 -322 -114 -171 -116 -173 -259 -251 -431 -236 -852 -389 -1268 -460 -215
-36 -676 -37 -712 -1 -7 7 -248 615 -248 626 0 2 26 13 59 25 79 28 243 128
371 226 137 104 449 416 579 580 57 72 115 145 130 162 l26 33 80 -12 c45 -7
191 -12 335 -12 221 0 271 3 377 22 136 25 319 70 403 101 30 11 60 20 66 20
6 1 29 -38 52 -86z m812 -114 c-23 -41 -50 -85 -62 -99 l-20 -25 14 25 c8 14
34 60 58 103 23 43 44 76 47 74 2 -3 -14 -38 -37 -78z m-6160 -239 c35 -52 76
-112 92 -132 17 -21 26 -38 21 -38 -9 0 -138 181 -174 245 -36 63 -7 28 61
-75z m6059 73 c-39 -64 -79 -122 -90 -129 -6 -3 15 33 47 80 58 87 84 117 43
49z m-5841 -365 c50 -60 68 -89 60 -94 -7 -4 -10 -4 -6 0 4 4 -21 40 -54 79
-60 72 -114 145 -86 117 8 -8 47 -54 86 -102z m112 -123 c5 3 49 -17 97 -45
175 -102 370 -189 427 -191 15 0 43 -30 93 -97 90 -123 211 -268 296 -354 37
-38 62 -68 56 -68 -6 0 -7 -5 -3 -11 3 -6 -8 -3 -25 5 -17 9 -31 19 -31 22 0
2 9 0 21 -6 11 -7 23 -9 26 -6 3 2 -21 18 -53 34 -33 17 -124 73 -203 126 -80
52 -146 94 -148 92 -2 -2 38 -32 89 -66 95 -65 139 -99 80 -63 -83 50 -182
124 -179 134 1 6 -4 14 -12 17 -8 3 -11 0 -7 -7 11 -17 0 -13 -15 6 -12 15
-12 16 1 8 13 -8 13 -7 1 8 -16 20 -36 23 -24 5 9 -15 -53 32 -152 115 -93 78
-355 338 -354 351 0 6 3 5 6 -2 2 -6 9 -10 13 -7z m853 -699 c26 -15 47 -30
47 -33 0 -6 -96 49 -123 71 l-22 18 25 -14 c14 -8 46 -27 73 -42z m3710 36
c-27 -20 -131 -79 -121 -67 9 9 131 84 138 84 3 0 -5 -7 -17 -17z m-133 -77
c0 -3 -31 -21 -70 -40 -38 -19 -70 -33 -70 -30 0 4 126 72 138 75 1 0 2 -2 2
-5z m-230 -120 c-36 -19 -69 -34 -75 -34 -5 0 19 15 55 34 36 19 70 34 75 34
6 0 -19 -15 -55 -34z m-100 -45 c-8 -5 -19 -10 -25 -10 -5 0 -3 5 5 10 8 5 20
10 25 10 6 0 3 -5 -5 -10z m-70 -30 c-8 -5 -19 -10 -25 -10 -5 0 -3 5 5 10 8
5 20 10 25 10 6 0 3 -5 -5 -10z m-50 -19 c-8 -5 -26 -11 -40 -15 -21 -5 -20
-3 5 9 32 15 60 20 35 6z m-70 -25 c0 -6 -246 -86 -262 -85 -11 0 234 85 255
88 4 1 7 -1 7 -3z m-281 -90 c-6 -7 -166 -46 -181 -45 -7 0 25 11 72 24 83 23
117 29 109 21z m-206 -53 c-7 -2 -19 -2 -25 0 -7 3 -2 5 12 5 14 0 19 -2 13
-5z m-50 -10 c-7 -2 -19 -2 -25 0 -7 3 -2 5 12 5 14 0 19 -2 13 -5z m-68 -13
c-16 -4 -43 -8 -60 -8 -29 1 -29 1 5 8 19 4 46 7 60 8 22 0 22 -1 -5 -8z
m-1192 -7 c-7 -2 -21 -2 -30 0 -10 3 -4 5 12 5 17 0 24 -2 18 -5z m70 -10 c-7
-2 -19 -2 -25 0 -7 3 -2 5 12 5 14 0 19 -2 13 -5z m1015 0 c-10 -2 -26 -2 -35
0 -10 3 -2 5 17 5 19 0 27 -2 18 -5z"/>
<path d="M1079 1020 c124 -124 264 -247 321 -283 22 -14 -27 29 -116 103 -44
36 -137 122 -209 192 -71 69 -133 128 -136 130 -3 1 60 -62 140 -142z"/>
<path d="M1606 6615 c-11 -8 -16 -15 -10 -15 5 0 18 7 28 15 11 8 16 15 10 15
-5 0 -18 -7 -28 -15z"/>
<path d="M6636 5543 c10 -16 33 -54 52 -85 33 -56 55 -81 31 -35 -23 43 -91
147 -96 147 -3 0 3 -12 13 -27z"/>
<path d="M6745 5360 c9 -16 18 -30 21 -30 2 0 -2 14 -11 30 -9 17 -18 30 -21
30 -2 0 2 -13 11 -30z"/>
<path d="M6790 5280 c11 -22 23 -40 25 -40 3 0 -4 18 -15 40 -11 22 -23 40
-25 40 -3 0 4 -18 15 -40z"/>
<path d="M6872 5125 c12 -24 23 -43 26 -41 4 5 -36 86 -43 86 -3 0 5 -20 17
-45z"/>
<path d="M6906 5057 c3 -10 9 -15 12 -12 3 3 0 11 -7 18 -10 9 -11 8 -5 -6z"/>
</g>
</svg>
